# xmcd
#
# Track frame offsets: 
#        150
#        40819
#        75344
#        94333
#        123068
#        170533
#        230104
#
# Disc length: 3408 seconds
#
# Revision: 0
# Processed by: cddbd v1.5.2PL0 Copyright (c) Steve Scherf et al.
# Submitted via: ExactAudioCopy v1.0b3
#
DISCID=4d0d4e07
DTITLE=Eduardo Paniagua - Alfonso X-Cantigas de nuestro Señor
DYEAR=2011
DGENRE=Classical
TTITLE0=CSM 424 Epifanía. La Adoración de los Reyws Magos
TTITLE1=CSM 426 Ascensión
TTITLE2=CSM 403 Los Siete Pesares
TTITLE3=CSM 423 La Creación del Mundo
TTITLE4=CSM 425 Resurrección
TTITLE5=CSM 406 Las Mayas
TTITLE6=CSM 427 Espíritu Santo
EXTD=
EXTT0=
EXTT1=
EXTT2=
EXTT3=
EXTT4=
EXTT5=
EXTT6=
PLAYORDER=
